<svg width="25" height="25" viewBox="0 0 25 25" fill="none" xmlns="http://www.w3.org/2000/svg">
<path d="M11.7763 0.686812C12.0257 -0.0831038 13.1149 -0.0831039 13.3643 0.686812L15.8334 8.30951C15.9158 8.56419 16.1155 8.76384 16.3702 8.84634L23.9929 11.3154C24.7628 11.5647 24.7628 12.654 23.9929 12.9034L16.3702 15.3724C16.1155 15.4549 15.9158 15.6546 15.8334 15.9092L13.3643 23.5319C13.1149 24.3019 12.0257 24.3019 11.7763 23.5319L9.30727 15.9092C9.22478 15.6546 9.02513 15.4549 8.77045 15.3724L1.14775 12.9034C0.377834 12.654 0.377834 11.5647 1.14775 11.3154L8.77045 8.84634C9.02513 8.76384 9.22478 8.56419 9.30727 8.30951L11.7763 0.686812Z" fill="none"/>
   <style>
        path { fill: #A855F7; }
        @media (prefers-color-scheme: dark) {
            path { fill: #C084FC; }
        }
    </style>
</svg>